HIERARCHY
ROOT Hips
{
 OFFSET 0.000000 0.000000 0.000000
 CHANNELS 6 Xposition Yposition Zposition Yrotation Xrotation Zrotation
 JOINT Chest
 {
  OFFSET 0.000000 9.581000 -0.001100
  CHANNELS 3 Yrotation Xrotation Zrotation
  JOINT Chest2
  {
   OFFSET 0.000000 9.561100 0.002200
   CHANNELS 3 Yrotation Xrotation Zrotation
   JOINT Chest3
   {
    OFFSET 0.000000 9.521100 0.000000
    CHANNELS 3 Yrotation Xrotation Zrotation
    JOINT Chest4
    {
     OFFSET 0.000000 9.511400 0.000000
     CHANNELS 3 Yrotation Xrotation Zrotation
     JOINT Neck
     {
      OFFSET 0.000000 14.375100 0.000000
      CHANNELS 3 Yrotation Xrotation Zrotation
      JOINT Head
      {
       OFFSET 0.000000 8.901200 0.004600
       CHANNELS 3 Yrotation Xrotation Zrotation
       End Site
       {
        OFFSET 0.000000 16.962200 0.002400
       }
      }
     }
     JOINT RightCollar
     {
      OFFSET -2.920100 9.518800 0.000000
      CHANNELS 3 Yrotation Xrotation Zrotation
      JOINT RightShoulder
      {
       OFFSET -13.664500 0.000000 0.000000
       CHANNELS 3 Yrotation Xrotation Zrotation
       JOINT RightElbow
       {
        OFFSET 0.000000 -29.999200 0.000000
        CHANNELS 3 Yrotation Xrotation Zrotation
        JOINT RightWrist
        {
         OFFSET 0.000000 -24.253600 0.000000
         CHANNELS 3 Yrotation Xrotation Zrotation
         End Site
         {
          OFFSET 0.000000 -17.918900 0.000000
         }
        }
       }
      }
     }
     JOINT LeftCollar
     {
      OFFSET 2.920100 9.518800 0.000000
      CHANNELS 3 Yrotation Xrotation Zrotation
      JOINT LeftShoulder
      {
       OFFSET 13.664500 0.000000 0.000000
       CHANNELS 3 Yrotation Xrotation Zrotation
       JOINT LeftElbow
       {
        OFFSET 0.000000 -29.999200 0.000000
        CHANNELS 3 Yrotation Xrotation Zrotation
        JOINT LeftWrist
        {
         OFFSET 0.000000 -24.253600 0.000000
         CHANNELS 3 Yrotation Xrotation Zrotation
         End Site
         {
          OFFSET 0.000000 -17.918900 0.000000
         }
        }
       }
      }
     }
    }
   }
  }
 }
 JOINT RightHip
 {
  OFFSET -7.797300 0.005300 0.000500
  CHANNELS 3 Yrotation Xrotation Zrotation
  JOINT RightKnee
  {
   OFFSET 0.000000 -40.663400 -0.000500
   CHANNELS 3 Yrotation Xrotation Zrotation
   JOINT RightAnkle
   {
    OFFSET 0.000000 -39.523700 -0.000900
    CHANNELS 3 Yrotation Xrotation Zrotation
    JOINT RightToe
    {
     OFFSET 0.000000 -6.418000 14.485300
     CHANNELS 3 Yrotation Xrotation Zrotation
     End Site
     {
      OFFSET 0.000000 -1.465200 6.326400
     }
    }
   }
  }
 }
 JOINT LeftHip
 {
  OFFSET 7.797300 0.005300 0.000500
  CHANNELS 3 Yrotation Xrotation Zrotation
  JOINT LeftKnee
  {
   OFFSET 0.000000 -40.663400 -0.000500
   CHANNELS 3 Yrotation Xrotation Zrotation
   JOINT LeftAnkle
   {
    OFFSET 0.000000 -39.523700 -0.000900
    CHANNELS 3 Yrotation Xrotation Zrotation
    JOINT LeftToe
    {
     OFFSET 0.000000 -6.418000 14.485300
     CHANNELS 3 Yrotation Xrotation Zrotation
     End Site
     {
      OFFSET 0.000000 -1.465200 6.326400
     }
    }
   }
  }
 }
}
MOTION
Frames: 15
Frame Time: 0.008333
-13.391878 126.911363 32.695003 -160.328046 -50.353622 -3.061302 -3.667135 26.122061 -1.022551 -0.567207 4.370105 -0.049673 -0.905556 6.947778 -0.099590 -2.958288 21.424980 -0.749569 -2.343019 19.469062 0.171204 -2.516905 -5.145384 0.662569 2.794357 3.104810 3.580566 -15.751014 -16.680202 -15.671827 -96.838731 -56.014425 133.455820 -8.396273 -2.523686 6.744400 -10.289842 -1.304578 -0.986718 7.095596 -12.726640 22.288564 84.328223 -57.646499 -118.601056 1.281324 -14.697969 1.225644 -6.574636 -22.687286 -11.175100 -10.767235 78.790369 -12.102475 10.212617 -16.247905 3.616260 -0.000671 -0.004805 -0.000297 4.369500 5.709590 -1.828401 129.036654 64.953093 147.403053 10.849106 11.134747 3.235836 -0.005136 0.016041 -0.002276
-13.392301 126.911302 32.695206 -160.316136 -50.351358 -3.064569 -3.673525 26.127520 -1.002526 -0.569759 4.369123 -0.052647 -0.906897 6.949927 -0.095258 -2.950552 21.430750 -0.721949 -2.360181 19.445658 0.122651 -2.405282 -5.204930 0.582358 2.780625 3.088197 3.583740 -15.363446 -16.507414 -15.817590 -96.510208 -56.121050 133.590446 -8.107297 -2.216707 6.946299 -10.269977 -1.348057 -0.974574 6.741520 -12.429356 22.387379 84.293477 -57.821029 -118.832203 0.910744 -14.232505 0.959382 -6.565711 -22.687121 -11.182976 -10.773510 78.790144 -12.102687 10.203175 -16.238715 3.623079 -0.000073 -0.004764 -0.000032 4.362647 5.706409 -1.835633 129.044418 64.952649 147.406169 10.846404 11.110738 3.271389 -0.007180 0.019207 -0.003182
-13.391987 126.910241 32.696003 -160.300909 -50.340722 -3.072894 -3.683259 26.121464 -0.992491 -0.571779 4.367215 -0.057518 -0.907430 6.950650 -0.093890 -2.941533 21.445506 -0.678072 -2.259630 19.393655 0.073178 -2.398168 -5.235380 0.537109 2.772530 3.067700 3.587126 -14.960001 -16.334719 -15.966184 -96.196256 -56.248854 133.727533 -7.795793 -1.904365 7.134442 -10.228885 -1.407867 -0.927324 6.387794 -12.109388 22.440738 84.263929 -57.990715 -119.081525 0.532672 -13.761861 0.716347 -6.545349 -22.696329 -11.194444 -10.795552 78.790720 -12.109771 10.217818 -16.218927 3.632498 0.002069 -0.003691 0.000917 4.352714 5.697852 -1.843466 129.048046 64.950380 147.415152 10.785269 11.022013 3.439993 0.001592 0.000414 0.000705
-13.392608 126.909758 32.696528 -160.285701 -50.334346 -3.075792 -3.694821 26.119799 -0.989201 -0.569399 4.373510 -0.042206 -0.908792 6.952859 -0.087827 -2.935260 21.461360 -0.618958 -2.217986 19.336675 -0.011815 -2.353933 -5.274962 0.480515 2.749415 3.033670 3.555438 -14.543848 -16.163722 -16.117458 -95.913025 -56.390623 133.886324 -7.468375 -1.592651 7.300454 -10.220059 -1.473526 -0.943287 6.057367 -11.807581 22.518735 84.224982 -58.151269 -119.337520 0.166665 -13.280823 0.503798 -6.539517 -22.703038 -11.202947 -10.801736 78.791847 -12.111527 10.196562 -16.200330 3.633159 -0.000020 -0.000688 -0.000009 4.343820 5.694047 -1.856612 129.044869 64.948465 147.413123 10.735821 10.943738 3.595198 0.005596 -0.014342 0.002479
-13.392549 126.910171 32.696067 -160.283383 -50.334723 -3.073751 -3.696848 26.132459 -0.946552 -0.573710 4.380368 -0.029978 -0.914914 6.958444 -0.077250 -2.960972 21.435887 -0.678191 -2.150811 19.313784 -0.022319 -2.287914 -5.319895 0.417189 2.750487 3.023680 3.595406 -14.118883 -15.997893 -16.270307 -95.672114 -56.545533 134.074649 -7.129518 -1.268574 7.462420 -10.200825 -1.494473 -0.910497 5.738143 -11.515600 22.605858 84.173791 -58.297562 -119.594937 -0.178918 -12.787462 0.319213 -6.530126 -22.699930 -11.205119 -10.811088 78.787686 -12.120150 10.181798 -16.197096 3.636836 -0.002545 -0.000556 -0.001128 4.346478 5.697124 -1.860432 129.036900 64.949085 147.409327 10.721650 10.914113 3.642154 0.005186 -0.012693 0.002297
-13.392353 126.910223 32.695868 -160.274944 -50.331789 -3.075749 -3.704332 26.131544 -0.945220 -0.576252 4.390674 -0.009959 -0.917467 6.961005 -0.072063 -2.966995 21.437529 -0.660090 -2.117212 19.280170 -0.071913 -2.202490 -5.370153 0.349606 2.746354 3.002169 3.600859 -13.686744 -15.833572 -16.427820 -95.474984 -56.722678 134.288398 -6.769820 -0.923335 7.641966 -10.183727 -1.537568 -0.914109 5.415205 -11.221299 22.685838 84.102464 -58.425076 -119.842988 -0.506590 -12.280249 0.165734 -6.530157 -22.701653 -11.210278 -10.809046 78.788138 -12.121183 10.191270 -16.200827 3.635156 -0.001723 -0.000921 -0.000763 4.343819 5.695858 -1.863732 129.032480 64.943199 147.405187 10.695519 10.866397 3.710635 0.004582 -0.015486 0.002029
-13.391139 126.909880 32.695738 -160.275805 -50.325607 -3.075303 -3.707186 26.137238 -0.923961 -0.576034 4.391205 -0.006001 -0.919591 6.963956 -0.067340 -2.974057 21.439295 -0.642854 -2.119732 19.254790 -0.120856 -2.081035 -5.430234 0.271838 2.743351 2.978099 3.612192 -13.247213 -15.664511 -16.588234 -95.347122 -56.940570 134.538783 -6.392133 -0.565509 7.850316 -10.167127 -1.584531 -0.919076 5.079867 -10.921944 22.759586 83.998002 -58.532885 -120.067713 -0.813219 -11.763603 0.048822 -6.527830 -22.707007 -11.210762 -10.809072 78.784387 -12.127208 10.222187 -16.202236 3.633171 -0.000260 -0.001226 -0.000115 4.346506 5.686047 -1.860770 129.043414 64.941091 147.418184 10.704250 10.869139 3.678903 0.001422 -0.008729 0.000630
-13.390681 126.910372 32.695119 -160.283711 -50.326351 -3.065352 -3.707324 26.147482 -0.906833 -0.574615 4.386998 -0.015662 -0.920660 6.965561 -0.065062 -2.973256 21.452910 -0.614256 -2.009881 19.200453 -0.165372 -2.069863 -5.463683 0.230519 2.740734 2.950478 3.631837 -12.803840 -15.490396 -16.743604 -95.317566 -57.212583 134.849596 -6.008530 -0.196454 8.085364 -10.163359 -1.624574 -0.937912 4.733561 -10.630850 22.844809 83.850048 -58.615694 -120.254002 -1.097695 -11.242646 -0.041229 -6.516973 -22.705924 -11.213043 -10.808188 78.784515 -12.128482 10.223149 -16.206749 3.630745 -0.000098 -0.001388 -0.000043 4.353006 5.684961 -1.860047 129.050072 64.942848 147.427086 10.720625 10.888478 3.620317 -0.000780 -0.000749 -0.000345
-13.391274 126.909869 32.695713 -160.272643 -50.318891 -3.061090 -3.717256 26.149314 -0.894691 -0.578065 4.383028 -0.026330 -0.921894 6.967044 -0.062633 -2.970399 21.464568 -0.583542 -1.959579 19.160863 -0.211986 -2.005083 -5.513777 0.171090 2.739925 2.926321 3.651058 -12.360835 -15.310500 -16.890323 -95.365179 -57.517344 135.220423 -5.597615 0.187814 8.332419 -10.162501 -1.663446 -0.958646 4.370410 -10.335113 22.920725 83.650710 -58.673319 -120.394632 -1.358173 -10.731433 -0.120567 -6.513473 -22.713217 -11.225840 -10.818729 78.785765 -12.135620 10.213128 -16.209929 3.630273 -0.000529 -0.001066 -0.000234 4.350153 5.678540 -1.866013 129.055259 64.939857 147.433709 10.701648 10.863392 3.655747 0.000374 -0.003309 0.000166
-13.390974 126.909310 32.696125 -160.268181 -50.311203 -3.056776 -3.724669 26.150566 -0.881478 -0.579434 4.385860 -0.023381 -0.923774 6.971098 -0.058108 -2.973428 21.469782 -0.569463 -1.963220 19.131445 -0.255147 -1.886590 -5.582575 0.093663 2.745254 2.898110 3.670194 -11.920782 -15.123314 -17.027630 -95.441318 -57.819790 135.620281 -5.129911 0.597590 8.593906 -10.144444 -1.725812 -0.933597 3.986403 -10.012868 22.943898 83.393708 -58.708599 -120.489585 -1.590473 -10.252665 -0.199280 -6.503500 -22.720707 -11.226941 -10.847766 78.788896 -12.160448 10.189432 -16.213775 3.632874 0.000589 -0.001113 0.000261 4.347014 5.673620 -1.872972 129.052941 64.931258 147.431139 10.674515 10.829668 3.709349 0.001839 -0.011031 0.000815
-13.390124 126.909124 32.696084 -160.266150 -50.306431 -3.054520 -3.732912 26.165325 -0.849272 -0.579762 4.380235 -0.035348 -0.928059 6.992634 -0.028277 -2.982371 21.478961 -0.546532 -1.928183 19.060195 -0.337061 -1.818933 -5.638777 0.033413 2.748239 2.847877 3.647686 -11.487101 -14.934554 -17.155695 -95.526580 -58.109203 136.032792 -4.616067 1.034072 8.884327 -10.149418 -1.791253 -0.993065 3.601783 -9.722224 23.009589 83.072520 -58.718586 -120.529648 -1.794092 -9.821309 -0.286698 -6.498996 -22.725769 -11.224161 -10.879884 78.789028 -12.190805 10.171953 -16.213093 3.634022 0.000419 -0.001225 0.000186 4.348318 5.670648 -1.871784 129.055693 64.930697 147.437012 10.660136 10.815804 3.735718 0.004443 -0.018618 0.001968
-13.388875 126.910230 32.694823 -160.273813 -50.311932 -3.049657 -3.729172 26.181185 -0.829591 -0.582612 4.382911 -0.033042 -0.928926 6.987899 -0.037564 -2.982834 21.495337 -0.523435 -1.871791 19.011218 -0.377858 -1.751351 -5.695766 -0.024292 2.760441 2.821363 3.666079 -11.061581 -14.746909 -17.279106 -95.633037 -58.394035 136.465533 -4.083826 1.484284 9.203449 -10.139659 -1.838305 -0.987887 3.201432 -9.418030 23.039654 82.686376 -58.704702 -120.513774 -1.959848 -9.449135 -0.392246 -6.492845 -22.720431 -11.217262 -10.915484 78.789165 -12.229486 10.163399 -16.213763 3.638116 -0.001326 -0.001711 -0.000587 4.357225 5.673168 -1.860195 129.067180 64.936862 147.455719 10.699491 10.880236 3.595551 0.003475 -0.005445 0.001540
-13.389047 126.911493 32.693829 -160.279780 -50.318870 -3.037898 -3.729707 26.198500 -0.819021 -0.585176 4.384899 -0.030166 -0.930847 6.983422 -0.047266 -2.980332 21.515494 -0.499822 -1.820565 18.957130 -0.419172 -1.682339 -5.752101 -0.081390 2.770562 2.792594 3.684640 -10.642781 -14.558192 -17.401855 -95.779370 -58.685019 136.932960 -3.549203 1.945529 9.542749 -10.133588 -1.890278 -0.987376 2.798822 -9.113221 23.065865 82.238102 -58.671918 -120.455513 -2.083022 -9.150116 -0.512727 -6.485963 -22.715085 -11.224010 -10.931342 78.788544 -12.244930 10.165331 -16.212372 3.636609 -0.000264 -0.001992 -0.000117 4.362225 5.675777 -1.861636 129.070483 64.940184 147.464953 10.764840 10.980811 3.376799 -0.002564 0.021076 -0.001136
-13.388696 126.911979 32.693342 -160.281470 -50.319488 -3.031805 -3.728318 26.213748 -0.802994 -0.589126 4.385678 -0.029415 -0.928190 7.015402 -0.016574 -2.994563 21.498279 -0.514243 -1.769146 18.901926 -0.460057 -1.619225 -5.810657 -0.136476 2.768042 2.760460 3.676991 -10.230678 -14.366350 -17.495093 -95.972416 -58.988543 137.441181 -3.019332 2.417155 9.901862 -10.130037 -1.940466 -0.983799 2.391879 -8.813352 23.077514 81.734955 -58.623213 -120.359421 -2.171016 -8.928657 -0.640516 -6.484657 -22.716353 -11.228618 -10.947560 78.786657 -12.258929 10.168491 -16.208914 3.633029 0.000097 -0.001996 0.000043 4.363218 5.674918 -1.862680 129.072183 64.942113 147.468945 10.787347 11.020840 3.290737 -0.005937 0.031145 -0.002632
-13.388519 126.911308 32.693900 -160.271272 -50.310739 -3.032292 -3.734992 26.220856 -0.789044 -0.590451 4.389734 -0.024492 -0.929043 7.021123 -0.015259 -2.996631 21.505509 -0.501786 -1.721134 18.848251 -0.499438 -1.556646 -5.871346 -0.192840 2.762339 2.727512 3.671336 -9.831001 -14.180246 -17.586636 -96.211363 -59.302499 137.986726 -2.494184 2.892441 10.284683 -10.128812 -1.992132 -0.961984 1.981366 -8.512767 23.057761 81.185943 -58.559257 -120.226534 -2.236007 -8.770350 -0.775299 -6.490405 -22.727908 -11.240624 -10.930053 78.785434 -12.242113 10.199670 -16.204052 3.628725 0.002879 -0.001466 0.001275 4.355354 5.668635 -1.870050 129.068555 64.941331 147.465214 10.749803 10.977172 3.386400 -0.004093 0.018198 -0.001814
